<svg width="1440" height="720" viewBox="0 0 1440 720" fill="none" xmlns="http://www.w3.org/2000/svg">
<path fill-rule="evenodd" clip-rule="evenodd" d="M0 550.189L60 596.038C120 641.887 240 733.585 360 718.302C480 703.019 600 580.755 720 565.472C840 550.189 960 641.887 1080 641.887C1200 641.887 1320 550.189 1380 504.34L1440 458.491V0H1380C1320 0 1200 0 1080 0C960 0 840 0 720 0C600 0 480 0 360 0C240 0 120 0 60 0H0V550.189Z" fill="url(#paint0_linear_5_5)"/>
<defs>
<linearGradient id="paint0_linear_5_5" x1="720" y1="0" x2="720" y2="720" gradientUnits="userSpaceOnUse">
<stop offset="0.0354163" stop-color="#5B8A72"/>
<stop offset="0.436458" stop-color="#5B8A72" stop-opacity="0.902808"/>
<stop offset="0.629166" stop-color="#5B8A72" stop-opacity="0.794337"/>
<stop offset="0.9999" stop-color="#5B8A72" stop-opacity="0.437332"/>
<stop offset="1" stop-color="#5B8A72" stop-opacity="0"/>
</linearGradient>
</defs>
</svg>
